<?xml version="1.0" standalone="no"?><!DOCTYPE svg PUBLIC "-//W3C//DTD SVG 1.1//EN" "http://www.w3.org/Graphics/SVG/1.1/DTD/svg11.dtd"><svg t="1550847933916" class="icon" style="" viewBox="0 0 1024 1024" version="1.1" xmlns="http://www.w3.org/2000/svg" p-id="1027" xmlns:xlink="http://www.w3.org/1999/xlink" width="200" height="200"><defs><style type="text/css"></style></defs><path d="M705.52881289 93.5976875c-39.81454358 0-80.13454692 9.11317038-116.60088904 26.35467253-28.25977006 13.36176003-54.3809621 31.66758381-76.64600861 53.60104-22.26380496-21.93345619-48.384997-40.24052031-76.64600861-53.60228154-36.46510058-17.24026061-76.78386115-26.35343099-116.59964749-26.35343099-70.35322732 0-135.62453955 26.59436195-183.79095943 74.88621531-48.14903342 48.27322535-74.66515509 113.68114737-74.66515509 184.17347 0 171.21160579 145.40710192 304.2219143 365.50668015 505.55864496l8.88962586 8.13081608 77.30422428 69.49630649 15.1439084-13.61386974 62.01997903-55.75079434 9.01257504-8.24383049c220.11324006-201.34418235 365.52779245-334.360701 365.52779244-505.57727418 0-70.49232142-26.51612167-135.89900189-74.66515508-184.17347C841.15335244 120.19329221 775.8820402 93.5976875 705.52881289 93.5976875L705.52881289 93.5976875z" fill="#1890ff" p-id="1028"></path></svg>