<?xml version="1.0" standalone="no"?><!DOCTYPE svg PUBLIC "-//W3C//DTD SVG 1.1//EN" "http://www.w3.org/Graphics/SVG/1.1/DTD/svg11.dtd"><svg t="1550847956834" class="icon" style="" viewBox="0 0 1024 1024" version="1.1" xmlns="http://www.w3.org/2000/svg" p-id="1151" xmlns:xlink="http://www.w3.org/1999/xlink" width="200" height="200"><defs><style type="text/css"></style></defs><path d="M729.174957 112.98028c-91.06718 0-171.504244 58.550569-205.943648 139.741811-42.102952-74.431274-131.711919-139.288486-231.686988-139.288486-16.798611 0-33.458053 1.959633-49.50351 5.829781-109.272838 26.334811-183.67853 133.434145-176.919585 254.654095 2.663669 47.845752 13.732783 120.467819 80.298918 200.452582l318.708011 316.648093c13.005211 12.891624 30.229519 20.002586 48.524205 20.002586 18.306966 0 35.532297-7.136545 48.44848-20.078311l315.252302-315.415008c61.164096-55.434599 82.95133-154.391477 82.95133-228.520875C959.304471 217.968531 856.063005 112.98028 729.174957 112.98028zM841.073601 538.511332l-316.170209 316.296076c-3.26742 3.266397-7.640012 5.100163-12.288896 5.100163-4.711306 0-9.171903-1.858326-12.501744-5.150305l-317.112675-314.838886c-54.668142-65.787398-64.618781-124.789246-67.081882-168.840575-5.389759-96.569502 52.330908-181.555167 137.592866-202.134899 12.111864-2.915402 24.211449-4.398174 36.989486-4.398174 106.056584 0 230.580793 124.438251 230.580793 200.930466l0-0.176009-0.314155 0 0 0.176009c0-84.809656 100.125495-201.381745 203.366961-201.381745 97.022828 0 184.030547 83.779185 184.030547 182.912073C908.166739 407.289577 890.827822 493.37939 841.073601 538.511332z" fill="#E46588" p-id="1152"></path></svg>