<?xml version="1.0" standalone="no"?><!DOCTYPE svg PUBLIC "-//W3C//DTD SVG 1.1//EN" "http://www.w3.org/Graphics/SVG/1.1/DTD/svg11.dtd"><svg t="1550845365818" class="icon" style="" viewBox="0 0 1024 1024" version="1.1" xmlns="http://www.w3.org/2000/svg" p-id="933" xmlns:xlink="http://www.w3.org/1999/xlink" width="200" height="200"><defs><style type="text/css"></style></defs><path d="M510.525 481.894L54.518 267.1c-3.973-1.884-4.014-7.577-0.041-9.462L506.88 41.288a5.408 5.408 0 0 1 4.506 0l451.379 214.835c3.932 1.884 3.973 7.537 0 9.42L515.03 481.895c-1.393 0.656-3.072 0.697-4.506 0z" fill="#1890ff" p-id="934"></path><path d="M510.525 481.894L54.518 267.1c-3.973-1.884-4.014-7.577-0.041-9.462L506.88 41.288a5.408 5.408 0 0 1 4.506 0l451.379 214.835c3.932 1.884 3.973 7.537 0 9.42L515.03 481.895c-1.393 0.656-3.072 0.697-4.506 0zM880.64 724.5l84.664 40.182c3.973 1.884 3.973 7.537 0.041 9.421L514.703 992.379c-1.433 0.696-3.072 0.737-4.505 0.04L51.938 777.135c-3.974-1.884-3.974-7.537 0-9.462l84.54-40.55 88.433-44.032 286.843 125.747L796.836 683.09l83.804 41.41z" fill="#1890ff" p-id="935"></path><path d="M880.64 724.5l84.664 40.182c3.973 1.884 3.973 7.537 0.041 9.421L514.703 992.379c-1.433 0.696-3.072 0.737-4.505 0.04L51.938 777.135c-3.974-1.884-3.974-7.537 0-9.462l84.54-40.55 88.433-44.032 286.843 125.747L796.836 683.09l83.804 41.41z" fill="#1890ff" p-id="936"></path><path d="M880.64 467.026l84.664 40.223c3.973 1.884 3.973 7.495 0.041 9.42L514.703 734.945a5.12 5.12 0 0 1-4.505 0L51.938 519.66c-3.974-1.885-3.974-7.537 0-9.462l84.54-40.51 87.532-44.974 281.477 131.318a14.896 14.896 0 0 0 12.534 0L798.68 424.714l81.961 42.312z" fill="#1890ff" p-id="937"></path><path d="M880.64 467.026l84.664 40.223c3.973 1.884 3.973 7.495 0.041 9.42L514.703 734.945a5.12 5.12 0 0 1-4.505 0L51.938 519.66c-3.974-1.885-3.974-7.537 0-9.462l84.54-40.51 87.532-44.974 281.477 131.318a14.896 14.896 0 0 0 12.534 0L798.68 424.714l81.961 42.312z" fill="#1890ff" p-id="938"></path></svg>