<?xml version="1.0" standalone="no"?><!DOCTYPE svg PUBLIC "-//W3C//DTD SVG 1.1//EN" "http://www.w3.org/Graphics/SVG/1.1/DTD/svg11.dtd"><svg t="1550845447338" class="icon" style="" viewBox="0 0 1024 1024" version="1.1" xmlns="http://www.w3.org/2000/svg" p-id="1057" xmlns:xlink="http://www.w3.org/1999/xlink" width="200" height="200"><defs><style type="text/css"></style></defs><path d="M509.567407 576.646158c-9.000594 0-18.122817 0-22.623114-4.500297L42.99608 332.048937c-13.62252-9.000594-22.623114-27.123411-22.623114-45.246229 0-18.122817 9.000594-36.245635 27.123411-45.246229L491.44459 19.582373c13.62252-9.000594 31.745338-9.000594 45.246228 0l439.326286 221.974106c18.122817 9.000594 27.123411 27.123411 27.123412 45.246229 0 18.122817-9.000594 36.245635-27.123412 45.246229L532.190521 572.024231c-9.122224 4.621927-13.62252 4.621927-22.623114 4.621927z m4.500297-520.93978h-4.500297L65.740824 282.180782c-4.500297 0-4.500297 4.500297-4.500297 4.500297 0 4.500297 0 9.000594 4.500297 9.000593l439.326286 240.096924h9.122224l443.826582-240.096924c4.500297 0 4.500297-4.500297 4.500297-9.000593s0-9.000594-4.500297-9.000594l-443.948212-221.974107z m0 0" p-id="1058" fill="#d9d9d9"></path><path d="M505.06711 793.998337c-9.000594 0-18.122817 0-22.623114-4.500297L42.99608 549.401117c-18.122817-9.000594-27.123411-27.123411-27.123411-45.246229 0-18.122817 9.000594-36.245635 27.123411-45.246229l95.114384-45.246229 18.122818 36.245635L65.740824 495.032664c-4.500297 0-4.500297 4.500297-4.500297 9.000594s0 9.000594 4.500297 9.000594l439.326286 240.096924h9.122224l443.826582-240.096924c4.500297 0 4.500297-4.500297 4.500297-9.000594s0-9.000594-4.500297-9.000594l-86.11379-45.246229 18.122818-36.245634 85.99216 45.246228c18.122817 9.000594 27.123411 27.123411 27.123412 45.246229 0 18.122817-9.000594 36.245635-27.123412 45.246229L532.190521 789.49804c-13.62252 4.500297-22.623114 4.500297-27.123411 4.500297z m0 0" p-id="1059" fill="#d9d9d9"></path><path d="M509.567407 1011.350517c-9.000594 0-18.122817 0-22.623114-4.500297L47.618007 766.874926c-18.122817-9.000594-27.123411-27.123411-27.123411-45.246229 0-18.122817 9.000594-36.245635 27.123411-45.246229l95.114384-45.246229 18.122817 36.245635-90.614087 45.246229c-4.500297 0-4.500297 4.500297-4.500297 9.000594s0 9.000594 4.500297 9.000594L509.567407 970.604585h9.000594l443.826583-240.096924c4.500297 0 4.500297-4.500297 4.500297-9.000594s0-9.000594-4.500297-9.000594l-85.992161-45.246228 18.122818-36.245635 85.99216 45.246229c18.122817 9.000594 27.123411 27.123411 27.123411 45.246228 0 18.122817-9.122224 36.245635-27.123411 45.246229L536.690818 1006.85022c-9.000594 0-18.122817 4.500297-27.123411 4.500297z m0 0" p-id="1060" fill="#d9d9d9"></path></svg>