<?xml version="1.0" standalone="no"?><!DOCTYPE svg PUBLIC "-//W3C//DTD SVG 1.1//EN" "http://www.w3.org/Graphics/SVG/1.1/DTD/svg11.dtd"><svg t="1550848397856" class="icon" style="" viewBox="0 0 1024 1024" version="1.1" xmlns="http://www.w3.org/2000/svg" p-id="1304" xmlns:xlink="http://www.w3.org/1999/xlink" width="200" height="200"><defs><style type="text/css"></style></defs><path d="M671.961 550.236c77.396-51.408 128.42-139.043 128.42-238.558C800.381 153.279 671.27 24.885 512 24.885S223.619 153.279 223.619 311.678c0 99.515 51.025 187.15 128.42 238.558-166.848 64.11-285.718 224.915-285.718 413.217 0 28.776 23.477 52.126 52.433 52.126h786.491c28.956 0 52.434-23.35 52.434-52.126 0-188.302-118.87-349.107-285.718-413.217zM512 468.106c-86.867 0-157.298-70.251-157.298-156.428 97.518-1.689 314.596 0 314.596 0 0 86.382-70.61 156.428-157.298 156.428z" fill="#1890ff" p-id="1305"></path></svg>