<?xml version="1.0" standalone="no"?><!DOCTYPE svg PUBLIC "-//W3C//DTD SVG 1.1//EN" "http://www.w3.org/Graphics/SVG/1.1/DTD/svg11.dtd"><svg t="1550848373225" class="icon" style="" viewBox="0 0 1024 1024" version="1.1" xmlns="http://www.w3.org/2000/svg" p-id="1179" xmlns:xlink="http://www.w3.org/1999/xlink" width="200" height="200"><defs><style type="text/css"></style></defs><path d="M862.455 652.408c-64.598-64.598-143.89-109.156-230.336-130.58 91.472-44.65 154.638-138.62 154.638-247.07C786.757 123.256 663.501 0 511.999 0S237.243 123.256 237.243 274.758c0 108.454 63.166 202.42 154.638 247.07-86.448 21.422-165.738 65.982-230.336 130.58C67.933 746.018 16.379 870.478 16.379 1002.862c0 11.672 9.462 21.136 21.136 21.136h948.97c11.672 0 21.136-9.462 21.136-21.136 0-132.384-51.554-256.844-145.166-350.454zM279.513 274.756c0-128.194 104.294-232.488 232.488-232.488s232.488 104.294 232.488 232.488c0 128.194-104.294 232.488-232.488 232.488s-232.488-104.296-232.488-232.488zM59.137 981.728C70.207 741.516 269.103 549.514 512.001 549.514s441.794 192.002 452.864 432.214H59.137z" p-id="1180"></path><path d="M329.359 655.214c-5.988-10.024-18.964-13.292-28.982-7.306-95.076 56.798-164.384 150.866-190.144 258.08-2.726 11.352 4.262 22.76 15.612 25.49 1.66 0.4 3.32 0.59 4.956 0.59 9.544 0 18.204-6.514 20.528-16.202 23.124-96.224 85.348-180.664 170.724-231.668 10.02-5.986 13.29-18.964 7.306-28.984zM511.999 589.67c-32.348 0-64.566 3.756-95.762 11.16-11.356 2.696-18.378 14.086-15.682 25.444 2.306 9.716 10.976 16.26 20.546 16.26 1.614 0 3.256-0.188 4.896-0.576 28.004-6.648 56.938-10.016 86.002-10.016 11.672 0 21.136-9.462 21.136-21.136s-9.462-21.136-21.136-21.136z" p-id="1181"></path></svg>